# xmcd
#
# Track frame offsets:
#	150
#	17620
#	36802
#	52725
#	65387
#	81532
#	107087
#	119410
#	136450
#	156147
#	172730
#
# Disc length: 2535 seconds
# Revision: 0
# Processed by: cddbd v1.5.2PL0 Copyright (c) Steve Scherf et al.
# Submitted via: dBpowerAMP V12.0
#
DISCID=8709e50b
DTITLE=k.d. lang - Invincible Summer
DYEAR=2000
DGENRE=Country
TTITLE0=The Consequences Of Falling
TTITLE1=Summerfling
TTITLE2=Suddenly
TTITLE3=It's Happening With You
TTITLE4=Extraordinary Thing
TTITLE5=Love's Great Ocean
TTITLE6=Simple
TTITLE7=What Better Said
TTITLE8=When We Collide
TTITLE9=Curiosity
TTITLE10=Only Love
EXTD=
EXTT0=
EXTT1=
EXTT2=
EXTT3=
EXTT4=
EXTT5=
EXTT6=
EXTT7=
EXTT8=
EXTT9=
EXTT10=
PLAYORDER=
